# xmcd
#
# Track frame offsets: 
#        150
#        20429
#        38296
#        57372
#        77727
#        96718
#        117497
#        133219
#        148476
#        165059
#        186887
#
# Disc length: 2680 seconds
#
# Revision: 5
# Processed by: cddbd v1.5.2PL0 Copyright (c) Steve Scherf et al.
# Submitted via: ExactAudioCopy v1.1
#
DISCID=970a760b
DTITLE=Al Green - Lay It Down
DYEAR=2008
DGENRE=R&B
TTITLE0=Al Green featuring Anthony Hamilton - Lay It Down
TTITLE1=Just For Me
TTITLE2=Al Green featuring Anthony Hamilton - You've Got The Love I Ne
TTITLE2=ed
TTITLE3=No One Like You
TTITLE4=What More Do You Want From Me
TTITLE5=Al Green featuring Corinne Bailey Rae - Take Your Time
TTITLE6=Too Much
TTITLE7=Al Green featuring John Legend - Stay With Me (By The Sea)
TTITLE8=All I Need
TTITLE9=I'm Wild About You
TTITLE10=Standing In The Rain
EXTD=YEAR: 2008  Blule Note Records 348449 2 \n
EXTT0=
EXTT1=
EXTT2=
EXTT3=
EXTT4=
EXTT5=
EXTT6=
EXTT7=
EXTT8=
EXTT9=
EXTT10=
PLAYORDER=
